<svg xmlns="http://www.w3.org/2000/svg" viewBox="0 0 43 42"><g fill="#fff"><path fill-rule="evenodd" d="M21.4.3a21.3 21.3 0 0 0-6.7 41.5c1 .2 1.4-.5 1.4-1v-4c-6 1.3-7.2-2.5-7.2-2.5-1-2.5-2.4-3.1-2.4-3.1-1.9-1.3.2-1.3.2-1.3C8.8 30 10 32 10 32c1.9 3.2 5 2.3 6.2 1.8.1-1.4.7-2.4 1.3-2.9-4.7-.5-9.7-2.4-9.7-10.5 0-2.4.8-4.3 2.2-5.7-.2-.6-1-2.7.2-5.7 0 0 1.8-.6 5.9 2.2a20.4 20.4 0 0 1 10.6 0c4.1-2.8 5.9-2.2 5.9-2.2 1.1 3 .4 5.1.2 5.7a8.2 8.2 0 0 1 2.2 5.7c0 8.2-5 10-9.7 10.5.7.6 1.4 2 1.4 4v5.8c0 .5.4 1.2 1.4 1A21.3 21.3 0 0 0 21.4.3"/><path d="M8.2 30.9s-.3.1-.4 0c-.2 0-.2-.2-.2-.3 0 0 .2-.1.4 0l.2.3M9 31.8c0 .1-.3 0-.4 0-.2-.2-.2-.4 0-.5 0-.1.2 0 .4 0v.5M9.9 33c-.2.1-.4 0-.5-.1v-.5c.1-.1.3 0 .5.1v.6M11 34.2c-.1.2-.4.1-.5 0-.2-.2-.3-.5-.2-.6.2-.1.4 0 .6.1.2.2.2.4.1.5M12.6 35c0 .1-.3.2-.5.1-.3 0-.4-.3-.4-.4 0-.2.3-.3.6-.2.2 0 .3.3.3.4M14.3 35c0 .2-.2.4-.4.4-.3 0-.5-.2-.5-.3 0-.2.2-.3.5-.4.2 0 .4.2.4.4M16 34.8c0 .2-.2.3-.4.4-.3 0-.5 0-.5-.3 0-.1.1-.3.4-.3.2 0 .4 0 .5.2"/></g></svg>